# Blender v2.79 (sub 0) OBJ File: 'Аня.blend'
# www.blender.org
mtllib Anna_finobj.mtl
o Grid_Grid.002
v 1.796420 2.063539 -2.024756
v -1.041844 2.010273 -2.009282
v 1.819803 1.997611 2.037038
v -1.018462 1.944345 2.052512
vt 0.000000 0.000000
vt 0.000000 1.000000
vt 1.000000 1.000000
vt 1.000000 0.000000
vn 0.0187 -0.9997 -0.0163
usemtl Material
s off
f 1/1/1 3/2/1 4/3/1 2/4/1
o Grid.001_Grid.003
v 1.928995 0.362533 -2.117628
v -0.909176 0.309074 -2.090260
v 1.969397 0.296925 1.944038
v -0.868775 0.243466 1.971405
vt 0.000000 0.000000
vt 0.000000 1.000000
vt 1.000000 1.000000
vt 1.000000 0.000000
vn 0.0187 -0.9997 -0.0163
usemtl Material.004
s off
f 5/5/2 7/6/2 8/7/2 6/8/2
