# Blender v2.79 (sub 0) OBJ File: 'grafikaFIN1web fin.blend'
# www.blender.org
mtllib grafikaFIN1web fin.mtl
o Grid.003_Grid.005
v 0.987098 -0.417012 -0.139463
v 2.818606 -0.573157 -0.225594
v 0.898620 -0.577601 -1.729745
v 2.730128 -0.733746 -1.815877
vt 0.000000 0.000000
vt 0.000000 1.000000
vt 1.000000 1.000000
vt 1.000000 0.000000
vn -0.0796 -0.9913 0.1045
usemtl Material.008
s off
f 1/1/1 3/2/1 4/3/1 2/4/1
o Grid.000_Grid.001
v 2.866517 -0.548144 -0.245750
v 1.035479 -0.385016 -0.150727
v 2.770524 -0.700001 -1.834778
v 0.939486 -0.536873 -1.739755
vt 0.000000 0.000000
vt 0.000000 1.000000
vt 1.000000 1.000000
vt 1.000000 0.000000
vn 0.0832 0.9915 -0.0998
usemtl Material.001
s off
f 5/5/2 7/6/2 8/7/2 6/8/2
o Grid.005_Grid.004
v -1.231927 -0.926652 -0.169872
v -3.063524 -0.870789 -0.210406
v -1.201934 -1.074788 -1.729329
v -3.033531 -1.018925 -1.769863
vt 0.000000 0.000000
vt 0.000000 1.000000
vt 1.000000 1.000000
vt 1.000000 0.000000
vn 0.0324 0.9951 -0.0939
usemtl Material.005
s off
f 9/9/3 11/10/3 12/11/3 10/12/3
o Grid.004_Grid.003
v -3.078582 -0.903960 -0.200735
v -1.247118 -0.952901 -0.151329
v -3.040663 -1.060236 -1.761185
v -1.209199 -1.109176 -1.711779
vt 0.000000 0.000000
vt 0.000000 1.000000
vt 1.000000 1.000000
vt 1.000000 0.000000
vn -0.0292 -0.9947 0.0989
usemtl Material.003
s off
f 13/13/4 15/14/4 16/15/4 14/16/4
o Grid.007
v -0.961469 -2.004078 3.139143
v 0.871040 -1.904017 3.200830
v -0.913973 -1.908129 1.572556
v 0.918536 -1.808067 1.634243
vt 0.000000 0.000000
vt 0.000000 1.000000
vt 1.000000 1.000000
vt 1.000000 0.000000
vn 0.0564 -0.9966 -0.0593
usemtl Material.007
s off
f 17/17/5 19/18/5 20/19/5 18/20/5
o Grid.006
v 0.884192 -1.867272 3.211579
v -0.948705 -1.973981 3.159005
v 0.923129 -1.763991 1.644503
v -0.909768 -1.870700 1.591928
vt 0.000000 0.000000
vt 0.000000 1.000000
vt 1.000000 1.000000
vt 1.000000 0.000000
vn -0.0598 0.9961 0.0642
usemtl Material.006
s off
f 21/21/6 23/22/6 24/23/6 22/24/6
