# Blender v2.79 (sub 0) OBJ File: 'grafikaFINweb fin.blend'
# www.blender.org
mtllib grafikaFINweb fin2.mtl
o Grid.003_Grid.005
v 0.987098 -0.417012 -0.139463
v 2.818606 -0.573157 -0.225594
v 0.898620 -0.577601 -1.729745
v 2.730128 -0.733746 -1.815877
vt 0.000000 0.000000
vt 0.000000 1.000000
vt 1.000000 1.000000
vt 1.000000 0.000000
vn -0.0796 -0.9913 0.1045
usemtl Material.008
s off
f 1/1/1 3/2/1 4/3/1 2/4/1
o Grid.000_Grid.001
v 2.866517 -0.548144 -0.245750
v 1.035479 -0.385016 -0.150727
v 2.770524 -0.700001 -1.834778
v 0.939486 -0.536873 -1.739755
vt 0.000000 0.000000
vt 0.000000 1.000000
vt 1.000000 1.000000
vt 1.000000 0.000000
vn 0.0832 0.9915 -0.0998
usemtl Material.001
s off
f 5/5/2 7/6/2 8/7/2 6/8/2
o Grid.002
v 0.907479 -1.311829 1.664475
v 0.853670 -1.417000 0.044900
v 2.823771 -1.404945 1.606854
v 2.769961 -1.510116 -0.012721
vt 0.000000 0.000000
vt 0.000000 1.000000
vt 1.000000 1.000000
vt 1.000000 0.000000
vn 0.0464 0.9967 -0.0663
usemtl Material.002
s off
f 9/9/3 11/10/3 12/11/3 10/12/3
o Grid.001_Grid.000
v 0.840754 -1.452317 0.031748
v 0.886444 -1.341335 1.652093
v 2.757434 -1.554264 -0.015315
v 2.803124 -1.443283 1.605030
vt 0.000000 0.000000
vt 0.000000 1.000000
vt 1.000000 1.000000
vt 1.000000 0.000000
vn -0.0513 -0.9963 0.0697
usemtl Material.000
s off
f 13/13/4 15/14/4 16/15/4 14/16/4
o Grid.005_Grid.004
v -1.231927 -0.926652 -0.169872
v -3.063524 -0.870789 -0.210406
v -1.201934 -1.074788 -1.729329
v -3.033531 -1.018925 -1.769863
vt 0.000000 0.000000
vt 0.000000 1.000000
vt 1.000000 1.000000
vt 1.000000 0.000000
vn 0.0324 0.9951 -0.0939
usemtl Material.005
s off
f 17/17/5 19/18/5 20/19/5 18/20/5
o Grid.004_Grid.003
v -3.078582 -0.903960 -0.200735
v -1.247118 -0.952901 -0.151329
v -3.040663 -1.060236 -1.761185
v -1.209199 -1.109176 -1.711779
vt 0.000000 0.000000
vt 0.000000 1.000000
vt 1.000000 1.000000
vt 1.000000 0.000000
vn -0.0292 -0.9947 0.0989
usemtl Material.003
s off
f 21/21/6 23/22/6 24/23/6 22/24/6
o Grid.007
v -0.961469 -2.004078 3.139143
v 0.871040 -1.904017 3.200830
v -0.913973 -1.908129 1.572556
v 0.918536 -1.808067 1.634243
vt 0.000000 0.000000
vt 0.000000 1.000000
vt 1.000000 1.000000
vt 1.000000 0.000000
vn 0.0564 -0.9966 -0.0593
usemtl Material.007
s off
f 25/25/7 27/26/7 28/27/7 26/28/7
o Grid.006
v 0.884192 -1.867272 3.211579
v -0.948705 -1.973981 3.159005
v 0.923129 -1.763991 1.644503
v -0.909768 -1.870700 1.591928
vt 0.000000 0.000000
vt 0.000000 1.000000
vt 1.000000 1.000000
vt 1.000000 0.000000
vn -0.0598 0.9961 0.0642
usemtl Material.006
s off
f 29/29/8 31/30/8 32/31/8 30/32/8
o Grid.009
v 0.772798 -0.594354 -1.580574
v -1.059395 -0.638992 -1.568372
v 0.760937 -0.507367 -3.043327
v -1.071256 -0.552005 -3.031126
vt 0.000000 0.000000
vt 0.000000 1.000000
vt 1.000000 1.000000
vt 1.000000 0.000000
vn -0.0239 0.9979 0.0595
usemtl Material.010
s off
f 33/33/9 35/34/9 36/35/9 34/36/9
o Grid.008
v -1.072884 -0.676844 -1.562847
v 0.759339 -0.626729 -1.565218
v -1.076963 -0.596908 -3.025872
v 0.755260 -0.546793 -3.028243
vt 0.000000 0.000000
vt 0.000000 1.000000
vt 1.000000 1.000000
vt 1.000000 0.000000
vn 0.0272 -0.9981 -0.0546
usemtl Material.009
s off
f 37/37/10 39/38/10 40/39/10 38/40/10
o Grid.011
v -1.124377 -1.448849 1.575948
v -2.955117 -1.556276 1.640928
v -1.175950 -1.434009 0.147460
v -3.006691 -1.541435 0.212440
vt 0.000000 0.000000
vt 0.000000 1.000000
vt 1.000000 1.000000
vt 1.000000 0.000000
vn -0.0581 0.9982 0.0125
usemtl Material.012
s off
f 41/41/11 43/42/11 44/43/11 42/44/11
o Grid.010
v -2.967430 -1.593885 1.647533
v -1.136294 -1.480487 1.592110
v -3.011191 -1.585659 0.218539
v -1.180055 -1.472261 0.163116
vt 0.000000 0.000000
vt 0.000000 1.000000
vt 1.000000 1.000000
vt 1.000000 0.000000
vn 0.0616 -0.9981 -0.0076
usemtl Material.011
s off
f 45/45/12 47/46/12 48/47/12 46/48/12
