# Blender v2.79 (sub 0) OBJ File: 'grafika1 web fin.blend'
# www.blender.org
mtllib grafika6 web fin.mtl
o Grid.003_Grid.005
v -1.485955 0.254437 -0.228980
v -1.512335 -2.577143 -0.028282
v 2.575371 0.210761 -0.311371
v 2.548991 -2.620820 -0.110674
vt 0.000000 0.000000
vt 0.000000 1.000000
vt 1.000000 1.000000
vt 1.000000 0.000000
vn -0.0210 -0.0705 -0.9973
usemtl Material.008
s off
f 1/1/1 3/2/1 4/3/1 2/4/1
o Grid.000_Grid.001
v -1.471176 -2.602294 -0.004462
v -1.459340 0.230047 -0.195582
v 2.590664 -2.623573 -0.068255
v 2.602500 0.208768 -0.259375
vt 0.000000 0.000000
vt 0.000000 1.000000
vt 1.000000 1.000000
vt 1.000000 0.000000
vn 0.0160 0.0672 0.9976
usemtl Material.001
s off
f 5/5/2 7/6/2 8/7/2 6/8/2
