# Blender v2.79 (sub 0) OBJ File: 'Артем web fin.blend'
# www.blender.org
mtllib toys fin2.mtl
o Grid.000
v -1.561256 -1.174116 6.929476
v 1.276652 -1.239891 6.913880
v -1.577882 -1.242086 4.190943
v 1.260027 -1.307861 4.175347
vt 0.000000 0.000000
vt 0.000000 1.000000
vt 1.000000 1.000000
vt 1.000000 0.000000
vn -0.0230 -0.9994 0.0249
usemtl Material.000
s off
f 1/1/1 3/2/1 4/3/1 2/4/1
o Grid.001
v -1.731291 -1.025708 -1.503805
v 1.106618 -1.091483 -1.519401
v -1.747917 -1.093678 -4.242337
v 1.089992 -1.159453 -4.257934
vt 0.000000 0.000000
vt 0.000000 1.000000
vt 1.000000 1.000000
vt 1.000000 0.000000
vn -0.0230 -0.9994 0.0249
usemtl Material.001
s off
f 5/5/2 7/6/2 8/7/2 6/8/2
o Grid.004_Grid.006
v -5.504016 -1.035364 5.370139
v -2.666108 -1.101139 5.354543
v -5.520642 -1.103334 2.631607
v -2.682733 -1.169109 2.616010
vt 0.000000 0.000000
vt 0.000000 1.000000
vt 1.000000 1.000000
vt 1.000000 0.000000
vn -0.0230 -0.9994 0.0249
usemtl Material.005
s off
f 9/9/3 11/10/3 12/11/3 10/12/3
o Grid.005_Grid.007
v 2.358203 -1.175170 5.316554
v 5.196112 -1.240945 5.300957
v 2.341578 -1.243140 2.578021
v 5.179486 -1.308915 2.562425
vt 0.000000 0.000000
vt 0.000000 1.000000
vt 1.000000 1.000000
vt 1.000000 0.000000
vn -0.0230 -0.9994 0.0249
usemtl Material.006
s off
f 13/13/4 15/14/4 16/15/4 14/16/4
o Grid.007_Grid.009
v -5.634326 -1.006658 0.759049
v -2.796417 -1.072433 0.743452
v -5.650951 -1.074628 -1.979484
v -2.813043 -1.140403 -1.995080
vt 0.000000 0.000000
vt 0.000000 1.000000
vt 1.000000 1.000000
vt 1.000000 0.000000
vn -0.0230 -0.9994 0.0249
usemtl Material.010
s off
f 17/17/5 19/18/5 20/19/5 18/20/5
o Grid.006_Grid.008
v 2.309095 -1.145510 0.590312
v 5.147004 -1.211285 0.574716
v 2.292470 -1.213480 -2.148221
v 5.130378 -1.279255 -2.163817
vt 0.000000 0.000000
vt 0.000000 1.000000
vt 1.000000 1.000000
vt 1.000000 0.000000
vn -0.0230 -0.9994 0.0249
usemtl Material.009
s off
f 21/21/6 23/22/6 24/23/6 22/24/6
