# Blender v2.79 (sub 0) OBJ File: 'дунаева.blend'
# www.blender.org
mtllib дунаева2.mtl
o Grid_Grid.002
v -1.308560 -0.530429 1.905370
v 1.529112 -0.532377 1.985610
v -1.193735 -0.529475 -2.155403
v 1.643937 -0.531423 -2.075164
vt 0.000000 0.000000
vt 0.000000 1.000000
vt 1.000000 1.000000
vt 1.000000 0.000000
vn -0.0007 -1.0000 -0.0003
usemtl Material.005
s off
f 1/1/1 3/2/1 4/3/1 2/4/1
o Grid.001_Grid.003
v 1.835005 0.441837 -1.928868
v -0.994417 0.328798 -2.129906
v 1.553727 0.280503 2.120566
v -1.275695 0.167464 1.919528
vt 0.000000 0.000000
vt 0.000000 1.000000
vt 1.000000 1.000000
vt 1.000000 0.000000
vn 0.0425 -0.9984 -0.0368
usemtl Material.004
s off
f 5/5/2 7/6/2 8/7/2 6/8/2
